<svg id="svelte-khights-ui-icons"
    xmlns="http://www.w3.org/2000/svg">
    <symbol id="Logo" viewBox="0 0 18 18">
        <path d="M9.00007 0C11.4852 0 13.7352 1.00732 15.3638 2.63606C16.9927 4.26479 18 6.51494 18 9.00007C18 11.4852 16.9927 13.7353 15.3639 15.3641C13.7353 16.9927 11.4853 18.0001 9.00007 18.0001C6.51481 18.0001 4.26466 16.9927 2.63606 15.3641C1.00732 13.7353 0 11.4852 0 9.00007C0 6.51494 1.00732 4.26479 2.63606 2.63619C4.26479 1.00732 6.51481 0 9.00007 0ZM14.8993 3.10068C13.3896 1.59087 11.3038 0.657192 9.00007 0.657192C6.69618 0.657192 4.61037 1.59087 3.10068 3.10068C1.59087 4.61037 0.657192 6.69618 0.657192 8.99994C0.657192 11.3039 1.59087 13.3899 3.10068 14.8994C4.61037 16.4091 6.69618 17.3429 8.99993 17.3429C11.3038 17.3429 13.3896 16.4091 14.8994 14.8994C16.4091 13.3898 17.3429 11.3039 17.3429 9.00007C17.3429 6.69618 16.4091 4.61037 14.8994 3.10068" />
        <path d="M12.4221 5.15893L14.7989 12.2825H12.7378L11.4253 8.15149L12.4221 5.15893ZM7.66942 5.05536H5.61027L3.201 12.2825H5.26209L5.5296 11.4795H7.54451L7.62088 11.2502C7.51914 10.9249 7.41765 10.5997 7.3146 10.275H5.93087L7.66942 5.05536Z" />
        <path d="M8.01096 5.15893L8.83794 7.63742L7.82047 10.6896L7.0143 8.15149L8.01096 5.15893ZM12.1338 5.05536H10.0748L7.66577 12.2825H9.72686L9.99437 11.4795H12.1084C11.9827 11.0778 11.8544 10.676 11.7272 10.275H10.3955L12.1338 5.05536Z" />
    </symbol>
    <symbol id="Images" viewBox="0 0 18 18">
        <path class="fill" d="M16 2.5a.534.534 0 0 0-.563-.5H.563A.534.534 0 0 0 0 2.5v11a.534.534 0 0 0 .563.5H1V3h15Z" />
        <path class="fill" d="M17.5 4h-15a.5.5 0 0 0-.5.5v11a.5.5 0 0 0 .5.5h15a.5.5 0 0 0 .5-.5v-11a.5.5 0 0 0-.5-.5Zm-.5 9.687-2.636-2.637a1 1 0 0 0-1.414 0l-1.536 1.536-3.778-3.779a1 1 0 0 0-1.414 0L3 12.03V5h14Z" />
        <circle class="fill" cx="14.5" cy="7.5" r="1.25" />
    </symbol>
    <symbol id="Quote" viewBox="0 0 18 18">
        <path class="fill" d="M17.5 9h-9a.5.5 0 0 0-.5.5v2a.5.5 0 0 0 .5.5h1a.5.5 0 0 0 .5-.5V11h2v5h-.5a.5.5 0 0 0-.5.5v1a.5.5 0 0 0 .5.5h3a.5.5 0 0 0 .5-.5v-1a.5.5 0 0 0-.5-.5H14v-5h2v.5a.5.5 0 0 0 .5.5h1a.5.5 0 0 0 .5-.5v-2a.5.5 0 0 0-.5-.5Z"/>
        <path class="fill" d="M15.5 1h-14a.5.5 0 0 0-.5.5v11a.5.5 0 0 0 .5.5H7V9a1 1 0 0 1 1-1h1.344L6.636 5.293a1 1 0 0 0-1.414 0L2 8.514V2h13v6h1V1.5a.5.5 0 0 0-.5-.5Z"/>
        <circle class="fill" cx="12.35" cy="4.65" r="1.35"/>
    </symbol>
    <symbol id="Delete" viewBox="0 0 18 18">
        <path d="M15.75 3H12V2a1 1 0 0 0-1-1H6a1 1 0 0 0-1 1v1H1.25a.25.25 0 0 0-.25.25v.5a.25.25 0 0 0 .25.25h1l1.207 12.55a.5.5 0 0 0 .5.45h9.089a.5.5 0 0 0 .5-.45L14.75 4h1a.25.25 0 0 0 .25-.25v-.5a.25.25 0 0 0-.25-.25ZM5.532 14.5A.5.5 0 0 1 5 14.035v-.001l-.535-8a.501.501 0 0 1 1-.067l.535 8a.5.5 0 0 1-.465.533ZM9 14a.5.5 0 0 1-1 0V6a.5.5 0 0 1 1 0Zm2-11H6V2h5Zm1 11.034a.501.501 0 0 1-1-.067l.535-8a.501.501 0 1 1 1 .067Z" />
    </symbol>
</svg>