<svg width="100%" height="100%" viewBox="0 0 185 185" fill="currentColor">
    <path d="M92.2293 0C117.696 0 140.753 10.3227 157.443 27.0133C174.135 43.704 184.457 66.7626 184.457 92.2293C184.457 117.696 174.135 140.755 157.444 157.445C140.755 174.135 117.697 184.459 92.2293 184.459C66.7613 184.459 43.7027 174.135 27.0133 157.445C10.3227 140.755 0 117.696 0 92.2293C0 66.7626 10.3227 43.704 27.0133 27.0147C43.704 10.3227 66.7613 0 92.2293 0ZM152.683 31.7746C137.212 16.3027 115.837 6.73466 92.2293 6.73466C68.62 6.73466 47.2453 16.3027 31.7746 31.7746C16.3027 47.2453 6.73466 68.62 6.73466 92.228C6.73466 115.839 16.3027 137.215 31.7746 152.684C47.2453 168.155 68.62 177.724 92.228 177.724C115.837 177.724 137.212 168.155 152.684 152.684C168.155 137.213 177.724 115.839 177.724 92.2293C177.724 68.62 168.155 47.2453 152.684 31.7746" />
    <path d="M127.297 52.8667L151.653 125.867H130.532L117.083 83.5334L127.297 52.8667ZM78.5933 51.8054H57.492L32.8026 125.867H53.924L56.6653 117.637H77.3133L78.096 115.288C77.0533 111.955 76.0133 108.621 74.9573 105.295H60.7773L78.5933 51.8054Z" />
    <path d="M82.0933 52.8667L90.5679 78.2654L80.1413 109.543L71.8799 83.5334L82.0933 52.8667ZM124.343 51.8054H103.243L78.5559 125.867H99.6773L102.419 117.637H124.083C122.795 113.521 121.48 109.404 120.176 105.295H106.529L124.343 51.8054Z" />
</svg>
